<svg width="32" height="32" viewBox="0 0 32 32" fill="none" xmlns="http://www.w3.org/2000/svg">
<g id="Icon">
<g id="Group">
<path id="Vector" d="M14.243 20.314L10 16.07L11.414 14.656L14.243 17.484L19.899 11.827L21.314 13.242L14.243 20.312V20.314Z" fill="#590BD8"/>
<path id="Vector_2" fill-rule="evenodd" clip-rule="evenodd" d="M5 16C5 9.925 9.925 5 16 5C22.075 5 27 9.925 27 16C27 22.075 22.075 27 16 27C9.925 27 5 22.075 5 16ZM16 25C14.8181 25 13.6478 24.7672 12.5558 24.3149C11.4639 23.8626 10.4718 23.1997 9.63604 22.364C8.80031 21.5282 8.13738 20.5361 7.68508 19.4442C7.23279 18.3522 7 17.1819 7 16C7 14.8181 7.23279 13.6478 7.68508 12.5558C8.13738 11.4639 8.80031 10.4718 9.63604 9.63604C10.4718 8.80031 11.4639 8.13738 12.5558 7.68508C13.6478 7.23279 14.8181 7 16 7C18.3869 7 20.6761 7.94821 22.364 9.63604C24.0518 11.3239 25 13.6131 25 16C25 18.3869 24.0518 20.6761 22.364 22.364C20.6761 24.0518 18.3869 25 16 25Z" fill="#590BD8"/>
</g>
</g>
</svg>
